<?xml version="1.0" encoding="UTF-8"?>
<!DOCTYPE svg PUBLIC "-//W3C//DTD SVG 1.1//EN" "http://www.w3.org/Graphics/SVG/1.1/DTD/svg11.dtd">
<!-- Creator: CorelDRAW (Evaluation Version) -->
<svg xmlns="http://www.w3.org/2000/svg" xml:space="preserve" width="1.8674mm" height="1.8673mm" version="1.1" style="shape-rendering:geometricPrecision; text-rendering:geometricPrecision; image-rendering:optimizeQuality; fill-rule:evenodd; clip-rule:evenodd"
viewBox="0 0 0.9 0.9"
 xmlns:xlink="http://www.w3.org/1999/xlink"
 xmlns:xodm="http://www.corel.com/coreldraw/odm/2003">
 <defs>
  <style type="text/css">
   <![CDATA[
    .fil0 {fill:#FEFEFE;fill-rule:nonzero}
   ]]>
  </style>
 </defs>
 <g id="Layer_x0020_1">
  <metadata id="CorelCorpID_0Corel-Layer"/>
  <g id="_1732708018096">
   <path class="fil0" d="M0.45 0.84c-0.21,0 -0.39,-0.17 -0.39,-0.39 0,-0.21 0.17,-0.39 0.39,-0.39 0.21,0 0.39,0.17 0.39,0.39 0,0.21 -0.17,0.39 -0.39,0.39zm0 -0.84c-0.25,0 -0.45,0.2 -0.45,0.45 0,0.25 0.2,0.45 0.45,0.45 0.25,0 0.45,-0.2 0.45,-0.45 0,-0.25 -0.2,-0.45 -0.45,-0.45z"/>
   <path class="fil0" d="M0.45 0.49c-0.06,0 -0.12,-0.05 -0.12,-0.12 0,-0.06 0.05,-0.12 0.12,-0.12 0.06,0 0.12,0.05 0.12,0.12 0,0.06 -0.05,0.12 -0.12,0.12zm0 -0.3l0 0c-0.15,0 -0.24,0.17 -0.16,0.3l0.16 0.22 0.16 -0.22c0.09,-0.13 -0,-0.3 -0.16,-0.3z"/>
  </g>
 </g>
</svg>
