<?xml version="1.0" encoding="UTF-8"?>
<!DOCTYPE svg PUBLIC "-//W3C//DTD SVG 1.1//EN" "http://www.w3.org/Graphics/SVG/1.1/DTD/svg11.dtd">
<!-- Creator: CorelDRAW (Evaluation Version) -->
<svg xmlns="http://www.w3.org/2000/svg" xml:space="preserve" width="1.8674mm" height="1.8674mm" version="1.1" style="shape-rendering:geometricPrecision; text-rendering:geometricPrecision; image-rendering:optimizeQuality; fill-rule:evenodd; clip-rule:evenodd"
viewBox="0 0 0.9 0.9"
 xmlns:xlink="http://www.w3.org/1999/xlink"
 xmlns:xodm="http://www.corel.com/coreldraw/odm/2003">
 <defs>
  <style type="text/css">
   <![CDATA[
    .fil0 {fill:#FEFEFE;fill-rule:nonzero}
   ]]>
  </style>
 </defs>
 <g id="Layer_x0020_1">
  <metadata id="CorelCorpID_0Corel-Layer"/>
  <g id="_1732706913216">
   <path class="fil0" d="M0.45 0.84c-0.21,0 -0.39,-0.17 -0.39,-0.39 0,-0.21 0.17,-0.39 0.39,-0.39 0.21,0 0.39,0.17 0.39,0.39 0,0.21 -0.17,0.39 -0.39,0.39zm0 -0.84c-0.25,0 -0.45,0.2 -0.45,0.45 0,0.25 0.2,0.45 0.45,0.45 0.25,0 0.45,-0.2 0.45,-0.45 0,-0.25 -0.2,-0.45 -0.45,-0.45z"/>
   <polygon class="fil0" points="0.45,0.44 0.69,0.3 0.21,0.3 "/>
   <polygon class="fil0" points="0.21,0.32 0.21,0.58 0.4,0.43 "/>
   <polygon class="fil0" points="0.69,0.32 0.69,0.58 0.5,0.43 "/>
   <polygon class="fil0" points="0.69,0.6 0.21,0.6 0.21,0.6 0.41,0.45 0.45,0.48 0.49,0.45 "/>
  </g>
 </g>
</svg>
