<?xml version="1.0" encoding="UTF-8"?>
<!DOCTYPE svg PUBLIC "-//W3C//DTD SVG 1.1//EN" "http://www.w3.org/Graphics/SVG/1.1/DTD/svg11.dtd">
<!-- Creator: CorelDRAW (Evaluation Version) -->
<svg xmlns="http://www.w3.org/2000/svg" xml:space="preserve" width="1.8674mm" height="1.8674mm" version="1.1" style="shape-rendering:geometricPrecision; text-rendering:geometricPrecision; image-rendering:optimizeQuality; fill-rule:evenodd; clip-rule:evenodd"
viewBox="0 0 0.9 0.9"
 xmlns:xlink="http://www.w3.org/1999/xlink"
 xmlns:xodm="http://www.corel.com/coreldraw/odm/2003">
 <defs>
  <style type="text/css">
   <![CDATA[
    .fil0 {fill:#FEFEFE;fill-rule:nonzero}
   ]]>
  </style>
 </defs>
 <g id="Layer_x0020_1">
  <metadata id="CorelCorpID_0Corel-Layer"/>
  <g id="_1731227251680">
   <path class="fil0" d="M0.45 0.84c-0.21,0 -0.39,-0.17 -0.39,-0.39 0,-0.21 0.17,-0.39 0.39,-0.39 0.21,0 0.39,0.17 0.39,0.39 0,0.21 -0.17,0.39 -0.39,0.39zm0 -0.84c-0.25,0 -0.45,0.2 -0.45,0.45 0,0.25 0.2,0.45 0.45,0.45 0.25,0 0.45,-0.2 0.45,-0.45 0,-0.25 -0.2,-0.45 -0.45,-0.45z"/>
   <path class="fil0" d="M0.57 0.55c-0.01,-0.01 -0.02,-0.01 -0.02,-0.01l-0.03 0.02c-0.01,0.01 -0.02,0.01 -0.04,0 -0.01,-0 -0.03,-0.01 -0.03,-0.03l-0.08 -0.12c-0.02,-0.03 -0.01,-0.06 0.01,-0.08l0.03 -0.02c0.01,-0 0.01,-0.02 0,-0.03l-0.03 -0.05c-0.01,-0.02 -0.03,-0.03 -0.04,-0.03 -0.01,0 -0.02,0.01 -0.03,0.02 -0.04,0.07 -0.03,0.18 0.03,0.28 0.06,0.09 0.15,0.15 0.23,0.15 0,0 0.01,-0 0.01,-0 0.01,-0 0.02,-0.01 0.03,-0.02 0.01,-0.01 0.01,-0.03 -0,-0.05l-0.03 -0.05z"/>
  </g>
 </g>
</svg>
